<svg width="136" height="136" viewBox="0 0 136 136" fill="none" xmlns="http://www.w3.org/2000/svg">
<g id="Group 77">
<g id="Rectangle 24" filter="url(#filter0_d_123_13)">
<rect x="19" y="15" width="97.3982" height="97.3982" rx="14" fill="white"/>
</g>
<g id="&#240;&#159;&#166;&#134; icon &#34;wallet&#34;">
<path id="Vector" d="M42.4189 39.4833H94.792C95.4038 39.483 96.0149 39.5219 96.6218 39.5995C96.4161 38.1556 95.9201 36.7683 95.1637 35.5213C94.4074 34.2742 93.4064 33.1933 92.221 32.3436C91.0356 31.4939 89.6904 30.893 88.2665 30.5773C86.8426 30.2615 85.3695 30.2373 83.936 30.5063L40.8641 37.8598H40.815C38.1114 38.3768 35.7071 39.9065 34.0933 42.1364C36.5247 40.4069 39.4352 39.4795 42.4189 39.4833Z" fill="#34FF85"/>
<path id="Vector_2" d="M94.792 43.4113H42.4189C39.6418 43.4143 36.9793 44.5188 35.0156 46.4825C33.0519 48.4463 31.9474 51.1088 31.9443 53.8859V85.3097C31.9474 88.0868 33.0519 90.7493 35.0156 92.713C36.9793 94.6767 39.6418 95.7813 42.4189 95.7843H94.792C97.5691 95.7813 100.232 94.6767 102.195 92.713C104.159 90.7493 105.264 88.0868 105.267 85.3097V53.8859C105.264 51.1088 104.159 48.4463 102.195 46.4825C100.232 44.5188 97.5691 43.4143 94.792 43.4113ZM87.0179 74.8351C85.982 74.8351 84.9694 74.5279 84.1082 73.9524C83.2469 73.3769 82.5756 72.559 82.1792 71.602C81.7828 70.645 81.6791 69.592 81.8812 68.576C82.0833 67.5601 82.5821 66.6269 83.3145 65.8944C84.047 65.162 84.9802 64.6632 85.9961 64.4611C87.012 64.259 88.0651 64.3627 89.0221 64.7591C89.9791 65.1555 90.797 65.8268 91.3725 66.6881C91.948 67.5494 92.2552 68.5619 92.2552 69.5978C92.2552 70.9868 91.7034 72.3189 90.7212 73.3011C89.739 74.2833 88.4069 74.8351 87.0179 74.8351Z" fill="#34FF85"/>
<path id="Vector_3" d="M32.0264 64.9333V48.6486C32.0264 45.102 33.9904 39.156 40.807 37.8679C46.5926 36.7828 52.3209 36.7828 52.3209 36.7828C52.3209 36.7828 56.0852 39.4015 52.9756 39.4015C49.8659 39.4015 49.9478 43.4113 52.9756 43.4113C56.0034 43.4113 52.9756 47.2574 52.9756 47.2574L40.7825 61.0872L32.0264 64.9333Z" fill="#34FF85"/>
</g>
</g>
<defs>
<filter id="filter0_d_123_13" x="0" y="0" width="135.398" height="135.398" filterUnits="userSpaceOnUse" color-interpolation-filters="sRGB">
<feFlood flood-opacity="0" result="BackgroundImageFix"/>
<feColorMatrix in="SourceAlpha" type="matrix" values="0 0 0 0 0 0 0 0 0 0 0 0 0 0 0 0 0 0 127 0" result="hardAlpha"/>
<feOffset dy="4"/>
<feGaussianBlur stdDeviation="9.5"/>
<feComposite in2="hardAlpha" operator="out"/>
<feColorMatrix type="matrix" values="0 0 0 0 0 0 0 0 0 0 0 0 0 0 0 0 0 0 0.5 0"/>
<feBlend mode="normal" in2="BackgroundImageFix" result="effect1_dropShadow_123_13"/>
<feBlend mode="normal" in="SourceGraphic" in2="effect1_dropShadow_123_13" result="shape"/>
</filter>
</defs>
</svg>
